<svg id="Layer_1" data-name="Layer 1" xmlns="http://www.w3.org/2000/svg" xmlns:xlink="http://www.w3.org/1999/xlink" viewBox="0 0 306.57 342.36"><defs><style>.cls-1{fill:url(#linear-gradient);}.cls-2{fill:url(#linear-gradient-2);}.cls-3{fill:url(#linear-gradient-3);}.cls-4{fill:url(#linear-gradient-4);}.cls-5{opacity:0.2;}.cls-5,.cls-6,.cls-7{isolation:isolate;}.cls-6{opacity:0.12;}.cls-7{fill:#fff;opacity:0.25;}</style><linearGradient id="linear-gradient" x1="-426.33" y1="1306.43" x2="-438.38" y2="1318.49" gradientTransform="translate(8058.52 -24151.61) scale(18.52)" gradientUnits="userSpaceOnUse"><stop offset="0" stop-color="#00a0ff"/><stop offset="0.01" stop-color="#00a1ff"/><stop offset="0.26" stop-color="#00beff"/><stop offset="0.51" stop-color="#00d2ff"/><stop offset="0.76" stop-color="#00dfff"/><stop offset="1" stop-color="#00e3ff"/></linearGradient><linearGradient id="linear-gradient-2" x1="-417.68" y1="1314.58" x2="-435.06" y2="1314.58" gradientTransform="translate(8058.52 -24151.61) scale(18.52)" gradientUnits="userSpaceOnUse"><stop offset="0" stop-color="#ffe000"/><stop offset="0.41" stop-color="#ffbd00"/><stop offset="0.78" stop-color="orange"/><stop offset="1" stop-color="#ff9c00"/></linearGradient><linearGradient id="linear-gradient-3" x1="-424.16" y1="1316.19" x2="-440.5" y2="1332.53" gradientTransform="translate(8058.52 -24151.61) scale(18.52)" gradientUnits="userSpaceOnUse"><stop offset="0" stop-color="#ff3a44"/><stop offset="1" stop-color="#c31162"/></linearGradient><linearGradient id="linear-gradient-4" x1="-436.76" y1="1300.33" x2="-429.46" y2="1307.63" gradientTransform="translate(8058.52 -24151.61) scale(18.52)" gradientUnits="userSpaceOnUse"><stop offset="0" stop-color="#32a071"/><stop offset="0.07" stop-color="#2da771"/><stop offset="0.48" stop-color="#15cf74"/><stop offset="0.8" stop-color="#06e775"/><stop offset="1" stop-color="#00f076"/></linearGradient></defs><title>play</title><path class="cls-1" d="M12,25.56c-4,4-5.32,10.64-5.32,18.62V338.11c0,8,2.66,14.63,6.65,18.62l1.33,1.33L179.63,193.14v-2.66Z" transform="translate(-6.73 -20.87)"/><path class="cls-2" d="M232.83,249,178.3,194.47v-4L232.83,136l1.33,1.33,65.17,37.24c18.62,10.64,18.62,27.93,0,38.57Z" transform="translate(-6.73 -20.87)"/><path class="cls-3" d="M234.16,247.67,178.3,191.81,12,358.06c6.65,6.65,16,6.65,27.93,1.33L234.16,247.67" transform="translate(-6.73 -20.87)"/><path class="cls-4" d="M234.16,136,40,25.56C28,18.91,18.7,20.24,12,26.89L178.3,191.81,234.16,136Z" transform="translate(-6.73 -20.87)"/><path class="cls-5" d="M232.83,246.34,40,355.4c-10.64,6.65-20,5.32-26.6,0L12,356.73l1.33,1.33c6.65,5.32,16,6.65,26.6,0Z" transform="translate(-6.73 -20.87)"/><path class="cls-6" d="M12,355.4c-4-4-5.32-10.64-5.32-18.62v1.33c0,8,2.66,14.63,6.65,18.62V355.4H12ZM299.33,209.1l-66.5,37.24,1.33,1.33,65.17-37.24c9.31-5.32,13.3-12,13.3-18.62C312.63,198.46,307.31,203.78,299.33,209.1Z" transform="translate(-6.73 -20.87)"/><path class="cls-7" d="M40,26.89,299.33,174.52c8,5.32,13.3,10.64,13.3,17.29,0-6.65-4-13.3-13.3-18.62L40,25.56C21.36,14.92,6.73,22.9,6.73,44.18v1.33C6.73,25.56,21.36,16.25,40,26.89Z" transform="translate(-6.73 -20.87)"/></svg>